{
  "accessors": [
    {
      "bufferView": 2,
      "componentType": 5126,
      "count": 8955,
      "max": [
        1595.0987548828125,
        1717.59326171875,
        1.968500018119812
      ],
      "min": [
        -1311.2607421875,
        -1469.840087890625,
        -40.141273498535156
      ],
      "type": "VEC3"
    },
    {
      "bufferView": 2,
      "byteOffset": 107460,
      "componentType": 5126,
      "count": 8955,
      "max": [
        0.9975078701972961,
        0.9819351434707642,
        0.7600836753845215
      ],
      "min": [
        -0.9866756796836853,
        -0.9910212755203247,
        -1.0
      ],
      "type": "VEC3"
    },
    {
      "bufferView": 1,
      "componentType": 5126,
      "count": 8955,
      "max": [
        4.871589660644531,
        6.390646457672119
      ],
      "min": [
        -3.529057502746582,
        -15.20328140258789
      ],
      "type": "VEC2"
    },
    {
      "bufferView": 0,
      "componentType": 5125,
      "count": 46227,
      "type": "SCALAR"
    }
  ],
  "asset": {
    "extras": {
      "author": "ROY (https://sketchfab.com/roy.gearloft.in)",
      "license": "CC-BY-4.0 (http://creativecommons.org/licenses/by/4.0/)",
      "source": "https://sketchfab.com/3d-models/blanket-913519ccf84c45fd8235a5e72e478915",
      "title": "Blanket"
    },
    "generator": "Sketchfab-13.83.0",
    "version": "2.0"
  },
  "bufferViews": [
    {
      "buffer": 0,
      "byteLength": 184908,
      "name": "floatBufferViews",
      "target": 34963
    },
    {
      "buffer": 0,
      "byteLength": 71640,
      "byteOffset": 184908,
      "byteStride": 8,
      "name": "floatBufferViews",
      "target": 34962
    },
    {
      "buffer": 0,
      "byteLength": 214920,
      "byteOffset": 256548,
      "byteStride": 12,
      "name": "floatBufferViews",
      "target": 34962
    }
  ],
  "buffers": [
    {
      "byteLength": 471468,
      "uri": "scene.bin"
    }
  ],
  "materials": [
    {
      "doubleSided": true,
      "name": "fur.001",
      "pbrMetallicRoughness": {
        "baseColorFactor": [
          0.0,
          0.0,
          0.0,
          1.0
        ],
        "metallicFactor": 0.178862,
        "roughnessFactor": 0.53252
      }
    }
  ],
  "meshes": [
    {
      "name": "Object_0",
      "primitives": [
        {
          "attributes": {
            "NORMAL": 1,
            "POSITION": 0,
            "TEXCOORD_0": 2
          },
          "indices": 3,
          "material": 0,
          "mode": 4
        }
      ]
    }
  ],
  "nodes": [
    {
      "children": [
        1
      ],
      "matrix": [
        1.0,
        0.0,
        0.0,
        0.0,
        0.0,
        2.220446049250313e-16,
        -1.0,
        0.0,
        0.0,
        1.0,
        2.220446049250313e-16,
        0.0,
        0.0,
        0.0,
        0.0,
        1.0
      ],
      "name": "Sketchfab_model"
    },
    {
      "children": [
        2
      ],
      "name": "root"
    },
    {
      "children": [
        3
      ],
      "matrix": [
        1.0,
        0.0,
        0.0,
        0.0,
        0.0,
        2.220446049250313e-16,
        1.0,
        0.0,
        0.0,
        -1.0,
        2.220446049250313e-16,
        0.0,
        0.0,
        0.0,
        0.0,
        1.0
      ],
      "name": "GLTF_SceneRootNode"
    },
    {
      "children": [
        4
      ],
      "matrix": [
        0.002930581569671631,
        0.0,
        0.0,
        0.0,
        0.0,
        -4.940591183263271e-10,
        0.0029305815696715892,
        0.0,
        0.0,
        -0.0029305815696715892,
        -4.940591183263271e-10,
        0.0,
        0.0,
        0.0,
        0.0,
        1.0
      ],
      "name": "3D MODEL _fur carpet t_0"
    },
    {
      "mesh": 0,
      "name": "Object_4"
    }
  ],
  "scene": 0,
  "scenes": [
    {
      "name": "Sketchfab_Scene",
      "nodes": [
        0
      ]
    }
  ]
}
